<svg width="63" height="39" viewBox="0 0 63 39" fill="none" xmlns="http://www.w3.org/2000/svg">
<path d="M0 0.541666C0 0.242512 0.242512 0 0.541666 0H9.20832C9.50748 0 9.74999 0.242512 9.74999 0.541666V30.5C9.74999 30.7992 9.50748 31 9.20832 31H0.541666C0.242512 31 0 30.7992 0 30.5V0.541666Z" fill="#FFB22A"/>
<path d="M9.16769 15.1654C8.9782 14.9343 9.01172 14.5933 9.2426 14.4035L15.9362 8.90094C16.168 8.71039 16.5105 8.74458 16.7001 8.97718L40.4464 38.1161C40.7347 38.47 40.4829 39 40.0265 39L28.9646 39C28.8023 39 28.6486 38.9272 28.5457 38.8017L9.16769 15.1654Z" fill="#FFB22A"/>
<path d="M16.7681 0.369112C16.8677 0.213763 17.0396 0.119812 17.2241 0.119812L28.1074 0.11978C28.5391 0.119779 28.7973 0.600194 28.5591 0.960287L9.70923 29.4565C9.54559 29.7039 9.21344 29.7736 8.9641 29.613L1.672 24.9152C1.4209 24.7534 1.34814 24.4189 1.50936 24.1675L16.7681 0.369112Z" fill="#FFB22A"/>
<path d="M46.814 24.1024C43.2248 24.1024 40.9516 21.4304 40.9516 16.565V16.2459C40.9516 11.3805 43.2248 8.78831 46.7343 8.78831C50.3235 8.78831 52.6366 11.4204 52.6366 16.2459V16.565C52.6366 21.3107 50.3634 24.1024 46.814 24.1024ZM46.5748 31.2011C55.9466 31.2011 62.0483 25.2589 62.0483 16.3656V16.0465C62.0483 7.03358 55.508 1.72949 46.7343 1.72949C38.1999 1.72949 31.5 7.47226 31.5 16.2858V16.6049C31.5 25.2589 37.2428 31.2011 46.5748 31.2011Z" fill="#0C377D"/>
</svg>
